HIERARCHY
ROOT hip
{
	OFFSET 0.000000 0.000000 0.000000 
	CHANNELS 6 Xposition Yposition Zposition Xrotation Zrotation Yrotation
	JOINT abdomen
	{
		OFFSET 0.000000 3.402643 0.000000 
		CHANNELS 3 Xrotation Zrotation Yrotation
		JOINT chest
		{
			OFFSET 0.000000 8.438565 -0.680529 
			CHANNELS 3 Xrotation Zrotation Yrotation
			JOINT neck
			{
				OFFSET 0.000000 10.207942 -0.272212 
				CHANNELS 3 Xrotation Zrotation Yrotation
				JOINT head
				{
					OFFSET 0.000000 3.130431 0.000000 
					CHANNELS 3 Xrotation Zrotation Yrotation
					End Site
					{
						OFFSET 0.000000 3.130435 0.000000 
					}
				}
			}
			JOINT lCollar
			{
				OFFSET 3.470700 6.669187 -0.816635 
				CHANNELS 3 Yrotation Zrotation Xrotation
				JOINT lShldr
				{
					OFFSET 3.198488 0.000000 0.000000 
					CHANNELS 3 Zrotation Yrotation Xrotation
					JOINT lForeArm
					{
						OFFSET 10.139888 0.000000 0.000000 
						CHANNELS 3 Yrotation Zrotation Xrotation
						JOINT lHand
						{
							OFFSET 8.370511 0.000000 0.000000 
							CHANNELS 3 Zrotation Yrotation Xrotation
							End Site
							{
								OFFSET 4.083176 0.000000 0.000000 
							}
						}
					}
				}
			}
			JOINT rCollar
			{
				OFFSET -3.470700 6.669187 -0.816635 
				CHANNELS 3 Yrotation Zrotation Xrotation
				JOINT rShldr
				{
					OFFSET -3.198488 0.000000 0.000000 
					CHANNELS 3 Zrotation Yrotation Xrotation
					JOINT rForeArm
					{
						OFFSET -10.139888 0.000000 0.000000 
						CHANNELS 3 Yrotation Zrotation Xrotation
						JOINT rHand
						{
							OFFSET -8.370511 0.000000 0.000000 
							CHANNELS 3 Zrotation Yrotation Xrotation
							End Site
							{
								OFFSET -4.083176 0.000000 0.000000 
							}
						}
					}
				}
			}
		}
	}
	JOINT lThigh
	{
		OFFSET 5.308129 -1.633274 1.361059 
		CHANNELS 3 Xrotation Zrotation Yrotation
		JOINT lShin
		{
			OFFSET -2.041588 -20.007561 0.000000 
			CHANNELS 3 Xrotation Zrotation Yrotation
			JOINT lFoot
			{
				OFFSET 0.000000 -19.190928 -1.224953 
				CHANNELS 3 Xrotation Yrotation Zrotation
				End Site
				{
					OFFSET 0.000000 -2.449906 4.627600 
				}
			}
		}
	}
	JOINT rThigh
	{
		OFFSET -5.308129 -1.633274 1.361059 
		CHANNELS 3 Xrotation Zrotation Yrotation
		JOINT rShin
		{
			OFFSET 2.041588 -20.007561 0.000000 
			CHANNELS 3 Xrotation Zrotation Yrotation
			JOINT rFoot
			{
				OFFSET 0.000000 -19.190928 -1.224953 
				CHANNELS 3 Xrotation Yrotation Zrotation
				End Site
				{
					OFFSET 0.000000 -2.449906 4.627600 
				}
			}
		}
	}
}
MOTION
Frames: 20
Frame Time: 0.066668
-0.351980 41.760284 6.342345 -4.011070 -13.717600 -25.142799 -3.602200 2.865296 -1.890968 -1.543800 1.227984 -0.810415 5.247600 4.161690 -12.388300 8.897120 6.840280 -5.870540 2.000000 -7.000000 0.000000 5.588805 -3.374040 105.323997 62.666500 -0.277626 0.121504 0.172873 -0.166939 144.660004 -2.000000 7.000000 0.000000 6.545601 -13.566200 99.055603 -62.949699 0.277024 0.121766 -0.171742 0.164306 148.664001 9.512105 4.788525 18.086061 31.824436 4.405520 1.958948 -45.641171 17.206942 16.133375 13.164216 7.558372 13.255742 8.970039 -8.213195 -0.419220 -17.056868 -6.809551 1.270984 
-0.441755 41.783035 6.120489 -3.631410 -13.869700 -26.132401 -3.877089 2.827195 -1.744289 -1.661610 1.211655 -0.747553 7.424690 3.591260 -9.627480 9.481310 6.385580 -4.545550 2.000000 -7.000000 0.000000 5.618546 -3.540180 105.128998 62.451698 -0.278081 0.121268 0.173891 -0.167144 144.289001 -2.000000 7.000000 0.000000 7.239799 -14.269400 99.367798 -62.881401 0.277170 0.121692 -0.170637 0.163994 149.074005 9.333827 5.118164 18.741802 31.755096 4.408073 1.959695 -45.793346 17.048292 16.111784 12.864658 7.644131 14.075787 8.421182 -7.810625 -0.388100 -16.917456 -7.002516 1.059909 
-0.524180 41.797050 5.912958 -3.570160 -13.812100 -26.316000 -3.508889 2.852003 -1.592746 -1.503810 1.222287 -0.682605 10.219800 2.396830 -5.410630 10.316000 5.617120 -2.406390 2.000000 -7.000000 0.000000 5.200397 -3.794560 104.357002 62.129398 -0.278761 0.120911 0.172873 -0.166939 144.660004 -2.000000 7.000000 0.000000 7.728300 -15.490100 99.396500 -62.637199 0.277688 0.121425 -0.170374 0.163918 149.171997 9.120230 5.525464 19.597118 31.744339 4.415265 1.961647 -44.976295 16.607519 15.369585 12.756866 7.605973 14.102566 7.954422 -7.477342 -0.356374 -16.892538 -7.273385 0.821448 
-0.580580 41.809647 5.724871 -3.715310 -13.449300 -25.395500 -3.735130 2.559851 -1.300890 -1.600770 1.097079 -0.557524 12.411400 1.769930 -1.230150 10.888600 5.144040 -0.199722 2.000000 -7.000000 0.000000 4.242545 -3.979890 104.709000 61.689999 -0.279686 0.120417 0.173704 -0.167106 144.358002 -2.000000 7.000000 0.000000 8.256001 -16.867100 99.493401 -62.422401 0.278142 0.121189 -0.169088 0.163541 149.651001 8.601936 5.900573 20.097092 31.857279 4.385551 1.973572 -43.401276 15.836530 14.011934 12.637802 7.581809 13.004823 7.840687 -7.411108 -0.329871 -17.167143 -7.465684 0.628316 
-0.630924 41.847446 5.602882 -4.114860 -12.722100 -22.950500 -3.653160 2.347870 -1.163532 -1.565640 1.006230 -0.498657 14.285200 1.556870 1.440300 11.522800 4.912870 1.253730 2.000000 -7.000000 0.000000 2.789860 -4.791050 103.665001 60.820801 -0.281505 0.119420 0.170225 -0.156607 145.626999 -2.000000 7.000000 0.000000 8.712900 -17.228100 98.643600 -62.256401 0.278493 0.121005 -0.168616 0.163400 149.826004 7.895538 6.227662 20.046806 31.884569 4.330088 1.977590 -41.026844 14.998218 12.352547 12.661685 7.427825 10.368665 7.834123 -7.388929 -0.319628 -17.412848 -7.598546 0.390786 
-0.677117 41.910324 5.516293 -4.566830 -11.643600 -18.862900 -3.339490 2.419452 -1.129217 -1.431210 1.036908 -0.483950 14.401600 1.068990 2.465850 11.499600 4.632340 1.830550 2.000000 -7.000000 0.000000 1.375961 -5.113820 102.747002 59.961498 -0.283288 0.118407 0.167561 -0.165756 146.604004 -2.000000 7.000000 0.000000 9.130600 -17.276600 97.709000 -61.865799 0.279317 0.120568 -0.168826 0.163463 149.748001 6.649922 6.638580 19.317938 31.851105 4.211500 1.985161 -37.922031 13.673077 10.294070 12.666435 7.228700 6.074214 7.843382 -7.393963 -0.329982 -17.522846 -7.400297 0.162996 
-0.771853 41.968712 5.436298 -4.925960 -10.469900 -13.517500 -4.633090 2.249163 -0.852484 -1.985610 0.963927 -0.365350 13.908800 1.247190 3.093050 11.302900 4.576670 2.188230 2.000000 -7.000000 0.000000 1.179800 -4.830420 103.117996 58.945801 -0.285375 0.117176 0.167109 -0.165647 146.770004 -2.000000 7.000000 0.000000 9.852001 -17.286200 97.230499 -60.830601 0.281484 0.119384 -0.168459 0.163353 149.884995 4.964409 7.217594 17.735077 32.017879 4.074466 2.025949 -34.877300 11.941792 8.136956 12.821501 7.191628 0.524943 7.608929 -7.170638 -0.303041 -17.728456 -6.844865 -0.156256 
-0.909587 42.015762 5.345597 -5.337710 -8.887700 -6.996140 -4.416580 2.586843 -0.482576 -1.892820 1.108647 -0.206818 11.654000 1.557320 4.806240 10.656200 4.574590 3.121960 2.000000 -7.000000 0.000000 1.272360 -4.606800 101.125000 58.291500 -0.286708 0.116363 0.169158 -0.166131 146.018005 -2.000000 7.000000 0.000000 11.577900 -17.344500 96.156303 -60.313000 0.282560 0.118777 -0.169193 0.163572 149.610992 2.993720 7.377241 15.419856 32.044922 3.941699 2.048717 -31.612154 9.703608 5.888945 12.817761 7.247367 -6.285123 7.993235 -7.449603 -0.346234 -18.332962 -5.886978 -0.177195 
-0.990456 42.119411 5.178506 -5.425810 -7.369540 -0.367195 -4.998420 2.524851 0.317133 -2.142180 1.082079 0.135914 10.293900 1.600530 6.632830 10.391200 4.529010 4.111140 2.000000 -7.000000 0.000000 1.352180 -4.011420 100.411003 57.910702 -0.287479 0.115883 0.167667 -0.165782 146.565002 -2.000000 7.000000 0.000000 13.278198 -17.374001 96.595703 -59.482899 0.284273 0.117783 -0.172717 0.154809 148.302994 0.631826 7.247500 12.733450 32.011845 3.732314 2.080479 -28.908558 7.491189 4.113623 12.737010 7.089422 -13.172706 7.810888 -7.315742 -0.353673 -18.387184 -4.620946 -0.250026 
-1.161603 42.195019 4.991755 -5.741800 -5.742720 7.235660 -5.106990 2.622172 0.937582 -2.188710 1.123788 0.401821 8.707270 1.431340 8.134350 10.027700 4.426030 4.881170 2.000000 -7.000000 0.000000 1.374390 -3.699380 99.278603 57.314999 -0.288679 0.115121 0.166950 -0.165608 146.828003 -2.000000 7.000000 0.000000 15.277901 -15.811200 95.746597 -58.945801 0.285374 0.117127 -0.170216 0.163872 149.231003 -1.585652 6.813251 9.600544 32.418640 3.628644 2.127173 -26.530130 5.029814 2.400545 13.046907 7.306770 -21.025539 7.843787 -7.423246 -0.351006 -18.582516 -3.433066 -0.261129 
-1.363714 42.230255 4.712965 -6.387070 -4.512950 14.010500 -5.398959 2.712367 1.739850 -2.313840 1.162443 0.745650 7.231250 1.780800 9.360090 9.567990 4.498600 5.487080 2.000000 -7.000000 0.000000 0.812000 -3.807400 97.578796 57.305199 -0.288699 0.115109 0.166525 -0.165503 146.983994 -2.000000 7.000000 0.000000 17.390099 -13.565500 96.948502 -58.320801 0.286648 0.116351 -0.171900 0.164350 148.606003 -3.644516 6.494644 7.228405 33.448074 3.583235 2.194768 -24.846329 2.304383 0.823955 13.669767 7.933696 -27.952269 7.888098 -7.448270 -0.362590 -18.771362 -2.600987 -0.319069 
-1.601784 42.175339 4.300674 -8.062100 -3.509970 19.686001 -5.492831 2.832852 2.525726 -2.354070 1.214079 1.082454 6.436870 3.292200 9.708540 9.318760 5.055280 5.704730 2.000000 -7.000000 0.000000 0.181271 -4.120370 95.879601 57.314999 -0.288679 0.115121 0.166047 -0.165384 147.160004 -2.000000 7.000000 0.000000 20.355900 -10.461000 99.877502 -58.936100 0.285394 0.117115 -0.178072 0.165933 146.330002 -4.576053 6.631607 5.715587 34.859646 3.545084 2.279331 -23.764027 -0.719636 -0.676789 14.952512 9.037148 -33.636669 8.345643 -7.806597 -0.404807 -19.184664 -1.777680 -0.126289 
-1.893641 42.068081 3.857130 -10.283800 -2.555980 23.744801 -5.386570 3.240799 3.075380 -2.308530 1.388914 1.318020 6.820140 2.477220 9.091820 9.599800 4.741300 5.406410 2.000000 -7.000000 0.000000 0.484850 -3.690770 95.528000 57.227100 -0.288856 0.115008 0.166180 -0.165417 147.110992 -2.000000 7.000000 0.000000 21.106400 -5.921760 103.521004 -59.365700 0.284514 0.117641 -0.180846 0.166560 145.315002 -4.394141 7.607000 5.440027 36.018353 3.469208 2.353796 -22.982119 -3.879032 -2.188845 16.449429 10.248985 -37.719147 9.254289 -8.442770 -0.482424 -19.397587 -1.466172 0.220739 
-2.160549 42.026531 3.540259 -11.420400 -1.569870 26.459499 -4.964820 4.210871 3.322193 -2.127780 1.804659 1.423797 7.564010 1.611840 8.119850 9.880950 4.446930 4.891380 2.000000 -7.000000 0.000000 1.489920 -3.114520 95.859901 58.018101 -0.287262 0.116019 0.171000 -0.156777 145.343994 -2.000000 7.000000 0.000000 19.943398 -2.398870 107.448997 -61.582600 0.279912 0.120248 -0.181996 0.166805 144.895004 -4.285184 7.694651 4.671339 36.244629 3.465644 2.360308 -22.338135 -5.597654 -2.893083 17.305340 10.694749 -40.594322 9.542981 -8.606612 -0.504262 -19.234295 -1.223530 0.309470 
-2.331395 42.044796 3.299677 -11.641900 -0.841699 27.946800 -5.415760 3.951974 3.719744 -2.321040 1.693703 1.594176 9.150580 2.323970 6.202930 10.158700 4.774260 3.903820 2.000000 -7.000000 0.000000 3.212860 -3.123600 98.213898 59.688000 -0.283852 0.118079 0.172551 -0.166872 144.776993 -2.000000 7.000000 0.000000 18.271698 -0.868487 111.033997 -64.502502 0.273702 0.123406 -0.172902 0.154859 148.235001 -4.303989 7.347147 3.799978 35.791698 3.472493 2.337529 -21.719521 -6.411354 -3.186264 17.446093 10.602651 -42.342587 9.647161 -8.711636 -0.524003 -18.952997 -0.923082 0.420770 
-2.455980 42.077183 3.031772 -11.700000 -0.669392 27.951099 -5.401690 3.728674 3.728872 -2.315010 1.598003 1.598088 11.503800 3.357290 2.534670 10.607700 5.419250 1.916380 2.000000 -7.000000 0.000000 4.042962 -2.438230 102.363998 61.514198 -0.280055 0.120218 0.164590 -0.165011 147.697006 -2.000000 7.000000 0.000000 15.377300 -1.832740 118.289001 -67.471199 0.267232 0.126289 -0.136864 0.140214 162.160004 -4.231634 7.262287 3.659488 35.227409 3.509392 2.304813 -21.130644 -6.439742 -3.125464 17.329338 10.431760 -42.537685 9.570313 -8.590865 -0.504534 -18.714697 -0.688793 0.435843 
-2.555347 42.134674 2.737885 -11.583400 -0.870576 26.653000 -4.975950 3.452289 3.351761 -2.132550 1.479553 1.436469 13.860600 2.716020 -2.670370 11.227200 5.517520 -0.980903 2.000000 -7.000000 0.000000 3.705770 -1.281710 108.867996 63.291500 -0.276297 0.122182 0.151368 -0.151181 152.639008 -2.000000 7.000000 0.000000 11.213900 -5.141610 131.406998 -71.436096 0.258375 0.129609 179.895996 179.875000 -3.073980 -4.070254 7.404378 4.388470 34.496265 3.539159 2.261198 -20.642879 -6.161247 -2.876220 16.992504 10.156808 -41.408848 9.285058 -8.481874 -0.485807 -18.361799 -0.739192 0.419678 
-2.660396 42.215416 2.427092 -11.350200 -1.215990 24.238199 -4.582620 2.860931 2.761899 -1.963980 1.226113 1.183671 15.724400 -0.271228 -7.682260 11.510900 4.748400 -3.758910 2.000000 -7.000000 0.000000 1.341469 -0.061803 118.280998 65.791496 -0.270911 0.124745 0.135400 -0.144519 158.820007 -2.000000 7.000000 0.000000 9.701599 -5.086620 144.490997 -75.303299 0.249535 0.132250 179.906006 179.895996 7.267810 -3.601673 7.475308 5.466677 33.554878 3.591855 2.186688 -20.310961 -4.936316 -2.308348 16.420588 9.608432 -39.213924 9.194750 -8.361755 -0.465535 -18.191668 -0.894207 0.431774 
-2.744261 42.305695 2.079787 -10.922900 -1.716400 20.604500 -3.409770 1.811894 2.350495 -1.461330 0.776526 1.007355 15.496600 -3.226080 -11.441400 11.073000 4.182040 -5.809170 2.000000 -7.000000 0.000000 -5.046700 1.104460 128.845993 69.658699 -0.262374 0.128241 0.122646 -0.137644 163.996002 -2.000000 7.000000 0.000000 15.845699 -1.405210 154.136993 -78.174400 0.242867 0.133822 -0.084998 0.079059 -166.442993 -3.004085 7.500521 7.419475 32.347721 3.646177 2.122867 -20.095055 -3.493550 -1.558019 15.556129 8.796628 -35.833870 9.123360 -8.322970 -0.451256 -17.826918 -1.022074 0.539036 
-2.818092 42.409222 1.672584 -10.301300 -2.296400 16.315399 -1.915340 0.630343 1.952503 -0.820860 0.270147 0.836787 14.241300 -5.395350 -12.969000 10.503100 3.994060 -6.644000 2.000000 -7.000000 0.000000 -16.558502 2.371370 139.067993 73.359901 -0.254000 0.131041 0.113707 -0.131880 167.794998 -2.000000 7.000000 0.000000 31.018398 3.979700 161.162003 -77.900902 0.243506 0.133687 -0.079572 0.068599 -162.233994 -2.354917 7.463812 9.528040 31.081434 3.760149 2.015157 -20.153486 -1.416662 -0.678015 14.653544 7.884686 -31.738455 8.601695 -7.947667 -0.400828 -16.973833 -1.292514 0.471572 
